<?xml version="1.0" encoding="utf-8"?>
<!-- Author: #growthwithcoding -->
<svg width="800" height="800" viewBox="0 0 100 100" xmlns="http://www.w3.org/2000/svg">
  <title>React Store Bag</title>
  <desc>Paper shopping bag with React logo, Firestore (left) and Firebase (right) badges above the footer text.</desc>
  <metadata>{ "author": "#growthwithcoding" }</metadata>

  <!-- Bag body -->
  <path fill="#D6AF72" d="M100 93a6 6 0 0 1-6 6H6a6 6 0 0 1-6-6V20h100v73z"/>
  <path fill="#E1B980" d="M4 0h92v20H4z"/>
  <path fill="#D6AF72" d="M96 20h-8V8l8-8zM4 20h8V8L4 0z"/>
  <path fill="#EFD9A0" d="M12 8v12H0zm76 0v12h12z"/>

  <!-- Handle anchors -->
  <circle fill="#B88B3A" cx="26" cy="40" r="5"/>
  <circle fill="#B88B3A" cx="74" cy="40" r="5"/>

  <!-- White handle -->
  <path stroke="#ffffff" stroke-width="6" stroke-linecap="round" fill="none"
        d="M74 40c0 13.254-10.745 24-24 24S26 53.255 26 40"/>

  <!-- React logo -->
  <g transform="translate(50,38) scale(0.9) translate(-16,-16)">
    <path d="M18.6789 15.9759C18.6789 14.5415 17.4796 13.3785 16 13.3785C14.5206 13.3785 13.3211 14.5415 13.3211 15.9759C13.3211 17.4105 14.5206 18.5734 16 18.5734C17.4796 18.5734 18.6789 17.4105 18.6789 15.9759Z" fill="#53C1DE"/>
    <path fill-rule="evenodd" clip-rule="evenodd" d="M24.7004 11.1537C25.2661 8.92478 25.9772 4.79148 23.4704 3.39016C20.9753 1.99495 17.7284 4.66843 16.0139 6.27318C14.3044 4.68442 10.9663 2.02237 8.46163 3.42814C5.96751 4.82803 6.73664 8.8928 7.3149 11.1357C4.98831 11.7764 1 13.1564 1 15.9759C1 18.7874 4.98416 20.2888 7.29698 20.9289C6.71658 23.1842 5.98596 27.1909 8.48327 28.5877C10.9973 29.9932 14.325 27.3945 16.0554 25.7722C17.7809 27.3864 20.9966 30.0021 23.4922 28.6014C25.9956 27.1963 25.3436 23.1184 24.7653 20.8625C27.0073 20.221 31 18.7523 31 15.9759C31 13.1835 26.9903 11.7923 24.7004 11.1537Z" fill="#53C1DE"/>
  </g>

  <!-- Firestore logo -->
  <g transform="translate(0,48) scale(0.8)">
    <path d="M5.8,24.6l.17-.237L13.99,9.149l.017-.161-3.535-6.64a.656.656,0,0,0-1.227.207Z" style="fill:#ffc24a"/>
    <path d="M5.9,24.42l.128-.25L13.965,9.114,10.439,2.448a.6.6,0,0,0-1.133.206Z" style="fill:#ffa712"/>
    <path d="M16.584,14.01l2.632-2.7L16.583,6.289a.678.678,0,0,0-1.195,0L13.981,8.971V9.2Z" style="fill:#f4bd62"/>
    <path d="M16.537,13.9,19.1,11.28,16.537,6.4a.589.589,0,0,0-1.074-.047L14.049,9.082l-.042.139Z" style="fill:#ffa50e"/>
    <polygon points="5.802 24.601 5.879 24.523 6.158 24.41 16.418 14.188 16.548 13.834 13.989 8.956 5.802 24.601" style="fill:#f6820c"/>
    <path d="M16.912,29.756,26.2,24.577,23.546,8.246A.635.635,0,0,0,22.471,7.9L5.8,24.6l9.233,5.155a1.927,1.927,0,0,0,1.878,0" style="fill:#fde068"/>
    <path d="M26.115,24.534,23.483,8.326a.557.557,0,0,0-.967-.353L5.9,24.569l9.131,5.1a1.912,1.912,0,0,0,1.863,0Z" style="fill:#fcca3f"/>
    <path d="M16.912,29.6a1.927,1.927,0,0,1-1.878,0L5.876,24.522,5.8,24.6l9.233,5.155a1.927,1.927,0,0,0,1.878,0L26.2,24.577l-.023-.14Z" style="fill:#eeab37"/>
    <polygon points="23.201 13 15.405 16.534 15.405 27.603 21.625 24.785 21.625 31 31 26.743 31 16.534 23.201 13" style="fill:#252525"/>
    <polygon points="23.201 14.73 16.985 17.549 16.985 20.327 23.201 17.507 29.421 20.327 29.421 17.549 23.201 14.73" style="fill:#fff"/>
    <polygon points="23.201 19.564 16.985 22.381 16.985 25.158 23.201 22.337 29.421 25.158 29.421 22.381 23.201 19.564" style="fill:#fff"/>
    <polygon points="28.606 26.098 25.551 24.712 23.201 25.778 23.201 28.548 28.606 26.098" style="fill:#fff"/>
  </g>

  <!-- Firebase flame logo -->
  <g transform="translate(74,50) scale(0.12)">
    <path d="M51.2275 191.109C59.4031 194.399 68.2727 196.352 77.5857 196.677C90.1896 197.117 102.175 194.511 112.89 189.561C100.041 184.513 88.4043 177.131 78.4729 167.952C72.0352 178.26 62.5135 186.401 51.2275 191.109Z" fill="#FF9100"/>
    <path d="M78.4711 167.955C55.8006 146.988 42.0477 116.641 43.21 83.3558C43.2478 82.2749 43.3048 81.1947 43.3715 80.1148C39.3113 79.0647 35.0725 78.4239 30.7103 78.2716C24.4663 78.0535 18.4195 78.8279 12.7108 80.4355C6.659 91.0365 3.00696 103.2 2.552 116.228C1.37785 149.852 21.7254 179.231 51.2257 191.112C62.5117 186.404 72.0331 178.272 78.4711 167.955Z" fill="#FFC400"/>
    <path d="M78.472 167.954C83.7428 159.519 86.9386 149.63 87.3106 138.976C88.2893 110.95 69.4486 86.8412 43.3725 80.1137C43.3058 81.1936 43.2487 82.2738 43.211 83.3547C42.0486 116.64 55.8015 146.987 78.472 167.954Z" fill="#FF9100"/>
    <path d="M84.3945 1.33524C69.5432 13.233 57.8158 28.9212 50.7205 46.9936C46.6583 57.3453 44.1056 68.4647 43.3603 80.1206C69.4365 86.8481 88.2772 110.957 87.2985 138.983C86.9264 149.637 83.7213 159.516 78.4599 167.961C88.391 177.149 100.028 184.522 112.877 189.57C138.667 177.649 156.965 151.996 158.025 121.654C158.711 101.995 151.158 84.4744 140.485 69.6852C129.214 54.0442 84.3945 1.33524 84.3945 1.33524Z" fill="#DD2C00"/>
  </g>

  <!-- Bottom text -->
  <text x="50" y="88" text-anchor="middle"
        font-family="Segoe UI, Roboto, Arial, sans-serif"
        font-weight="700" font-size="9" fill="#ffffff"
        letter-spacing=".5">
    React Store | FB
  </text>
</svg>
